<svg width="34" height="34" viewBox="0 0 34 34" fill="none" xmlns="http://www.w3.org/2000/svg">
<circle cx="17" cy="17" r="17" fill="black" fill-opacity="0.24"/>
<g clip-path="url(#clip0_14_217)">
<path d="M11.75 9H22.25C22.4489 9 22.6397 9.07902 22.7803 9.21967C22.921 9.36032 23 9.55109 23 9.75V24.1073C23.0001 24.1743 22.9822 24.2402 22.9482 24.2979C22.9142 24.3557 22.8653 24.4033 22.8066 24.4358C22.7479 24.4683 22.6816 24.4844 22.6146 24.4826C22.5476 24.4807 22.4823 24.4609 22.4255 24.4252L17 21.0225L11.5745 24.4245C11.5178 24.4601 11.4525 24.4799 11.3856 24.4818C11.3186 24.4837 11.2524 24.4676 11.1937 24.4352C11.1351 24.4029 11.0862 24.3554 11.0521 24.2977C11.018 24.24 11 24.1742 11 24.1073V9.75C11 9.55109 11.079 9.36032 11.2197 9.21967C11.3603 9.07902 11.5511 9 11.75 9ZM21.5 10.5H12.5V22.074L17 19.2533L21.5 22.074V10.5Z" fill="white"/>
</g>
<defs>
<clipPath id="clip0_14_217">
<rect width="24" height="24" fill="white" transform="translate(5 5)"/>
</clipPath>
</defs>
</svg>
